<?xml version="1.0" encoding="UTF-8"?>
<svg width="145px" height="119px" viewBox="0 0 145 119" version="1.1" xmlns="http://www.w3.org/2000/svg" xmlns:xlink="http://www.w3.org/1999/xlink">
    <!-- Generator: Sketch 54 (76480) - https://sketchapp.com -->
    <title>Group 2</title>
    <desc>Created with Sketch.</desc>
    <g id="Page-1" stroke="none" stroke-width="1" fill="none" fill-rule="evenodd">
        <g id="Home-Copy" transform="translate(-1135.000000, -2484.000000)">
            <g id="Group-2" transform="translate(1135.000000, 2484.000000)">
                <g id="el-mar" transform="translate(70.000000, 86.000000)">
                    <path d="M3.74644893,1.18349774e-12 C6.39622101,4.31815804 11.1172791,7.19230769 16.5,7.19230769 C21.8827209,7.19230769 26.603779,4.31815804 29.2535511,1.18416388e-12 L33,0 C31.8102691,6.22388488 24.8761295,11 16.5,11 C8.1238705,11 1.18973091,6.22388488 -6.66133815e-15,-6.66133815e-16 L3.74644893,0 Z" id="Combined-Shape" fill="#ADD1CA"></path>
                    <path d="M44.7464489,1.24256161e-12 C47.396221,4.31815804 52.1172791,7.19230769 57.5,7.19230769 C62.8827209,7.19230769 67.603779,4.31815804 70.2535511,1.24145139e-12 L74,5.86197757e-14 C72.8102691,6.22388488 65.8761295,11 57.5,11 C49.1238705,11 42.1897309,6.22388488 41,5.93969318e-14 L44.7464489,5.86197757e-14 Z" id="Combined-Shape" stroke="#ADD1CA" fill="#ADD1CA" stroke-linecap="round"></path>
                    <path d="M25.3439428,6.41708908e-14 C27.3938727,4.49609505 31.8793844,7.61538462 37.0829929,7.61538462 C42.2866013,7.61538462 46.772113,4.49609505 48.8220429,6.2394534e-14 L54,5.86197757e-14 C52.8102691,6.22388488 45.8761295,11 37.5,11 C29.1238705,11 22.1897309,6.22388488 21,5.93969318e-14 L25.3439428,5.86197757e-14 Z" id="Combined-Shape" fill="#164976" opacity="0.597237723"></path>
                </g>
                <g id="el-mar" transform="translate(48.000000, 108.000000)">
                    <path d="M3.74644893,1.0762502e-12 C6.39622101,3.92559821 11.1172791,6.53846154 16.5,6.53846154 C21.8827209,6.53846154 26.603779,3.92559821 29.2535511,1.07513998e-12 L33,0 C31.8102691,5.65807716 24.8761295,10 16.5,10 C8.1238705,10 1.18973091,5.65807716 -9.14546217e-15,-3.33066907e-16 L3.74644893,0 Z" id="Combined-Shape" fill="#ADD1CA"></path>
                    <path d="M44.7464489,1.12687637e-12 C47.396221,3.92559821 52.1172791,6.53846154 57.5,6.53846154 C62.8827209,6.53846154 67.603779,3.92559821 70.2535511,1.12687637e-12 L74,4.97379915e-14 C72.8102691,5.65807716 65.8761295,10 57.5,10 C49.1238705,10 42.1897309,5.65807716 41,5.06261699e-14 L44.7464489,4.97379915e-14 Z" id="Combined-Shape" stroke="#ADD1CA" fill="#ADD1CA" stroke-linecap="round"></path>
                    <path d="M25.3439428,5.44009282e-14 C27.3938727,4.08735914 31.8793844,6.92307692 37.0829929,6.92307692 C42.2866013,6.92307692 46.772113,4.08735914 48.8220429,4.86277685e-14 L54,4.97379915e-14 C52.8102691,5.65807716 45.8761295,10 37.5,10 C29.1238705,10 22.1897309,5.65807716 21,5.06261699e-14 L25.3439428,4.97379915e-14 Z" id="Combined-Shape" fill="#164976" opacity="0.597237723"></path>
                </g>
                <g id="Edificio" transform="translate(0.000000, 16.000000)" fill="#FFFFFF">
                    <path d="M0.885651438,26.5 L16.8194565,52.9078704 C18.5390768,55.7578807 21.6248977,57.5 24.9535089,57.5 L94.6110473,57.5 C97.5892784,57.5 100.350276,55.9412617 101.888884,53.3912525 L118.114349,26.5 L0.885651438,26.5 Z" id="Rectangle" stroke="#FFFFFF"></path>
                    <polygon id="Path-9" opacity="0.452218192" points="70 26 70 0 99 26"></polygon>
                    <polygon id="Path-9" transform="translate(54.500000, 13.000000) scale(-1, 1) translate(-54.500000, -13.000000) " points="40 26 40 0 69 26"></polygon>
                </g>
                <path d="M143.536575,10 L75,10 C76.1218737,7.29976111 81.1842587,5.26190476 87.259667,5.26190476 C89.2188139,5.26190476 91.0726185,5.47381728 92.722913,5.85151834 C95.1116322,2.45393755 101.971511,0 110.061391,0 C117.935517,0 124.644375,2.32479199 127.199272,5.58172437 C128.477197,5.37446293 129.849076,5.26190476 131.276908,5.26190476 C137.352317,5.26190476 142.414702,7.29976111 143.536575,10 Z" id="Combined-Shape" fill="#8C7239" opacity="0.500767299"></path>
            </g>
        </g>
    </g>
</svg>