<?xml version="1.0" encoding="UTF-8"?>
<svg width="111px" height="81px" viewBox="0 0 111 81" version="1.1" xmlns="http://www.w3.org/2000/svg" xmlns:xlink="http://www.w3.org/1999/xlink">
    <!-- Generator: Sketch 54 (76480) - https://sketchapp.com -->
    <title>Gato</title>
    <desc>Created with Sketch.</desc>
    <g id="Page-1" stroke="none" stroke-width="1" fill="none" fill-rule="evenodd">
        <g id="Home-Copy" transform="translate(-665.000000, -3158.000000)">
            <g id="Gato" transform="translate(665.000000, 3158.000000)">
                <path d="M88.2044113,0.415595939 L88.3730769,1.13686838e-13 C90.0105551,2.05475065 91.1737169,3.79343767 91.8625622,5.21606106 C107.209783,25.8892811 113.326255,41.4720226 110.211977,51.9642857 C106.840988,63.3214286 88.6036621,73 55.5,81 C55.5,45.8571429 55.5,24 55.5,15.4285714 C55.5,2.57142857 69.5884615,5.57142857 84.1038462,9.21428571 C84.131791,9.2212989 84.159667,9.22826622 84.1874742,9.23518768 L87.8791749,1.42108547e-14 C87.987971,0.138743721 88.0963831,0.277275701 88.2044113,0.415595939 Z M22.7955887,0.415595939 C22.9036169,0.277275701 23.012029,0.138743721 23.1208251,1.42108547e-14 L26.8125258,9.23518768 C26.840333,9.22826622 26.868209,9.2212989 26.8961538,9.21428571 C41.4115385,5.57142857 55.5,2.57142857 55.5,15.4285714 C55.5,24 55.5,45.8571429 55.5,81 C22.3963379,73 4.15901232,63.3214286 0.788023387,51.9642857 C-2.32625484,41.4720226 3.79021665,25.8892811 19.1374378,5.21606106 C19.8262831,3.79343767 20.9894449,2.05475065 22.6269231,1.13686838e-13 L22.7955887,0.415595939 Z" id="Combined-Shape" fill="#C58744" opacity="0.698451451"></path>
                <g id="bigotes-izq" transform="translate(5.000000, 39.000000)" stroke="#FFFFFF" stroke-linecap="square">
                    <path d="M42,8.75 L3.72580645,10.85" id="Line-15"></path>
                    <path d="M42,11.2 L5.08064516,20.65" id="Line-16"></path>
                    <path d="M42,5.95 L0.677419355,0" id="Line-14"></path>
                </g>
                <g id="bigotes-izq" transform="translate(84.000000, 49.500000) scale(-1, 1) translate(-84.000000, -49.500000) translate(63.000000, 39.000000)" stroke="#FFFFFF" stroke-linecap="square">
                    <path d="M42,8.75 L3.72580645,10.85" id="Line-15"></path>
                    <path d="M42,11.2 L5.08064516,20.65" id="Line-16"></path>
                    <path d="M42,5.95 L0.677419355,0" id="Line-14"></path>
                </g>
                <circle id="Oval" fill="#535054" cx="55.5" cy="67.5" r="2.5"></circle>
                <path d="M56.5,38.3461538 L56.5,64.6538462" id="Line-13" stroke="#445159" stroke-width="2" stroke-linecap="round"></path>
                <path d="M83,28 C84.3181505,24.5495456 88.9671528,22 94.5,22 C100.032847,22 104.681849,24.5495456 106,28 L83,28 Z" id="Combined-Shape" fill="#FFFFFF"></path>
                <path d="M99,22.0183096 L99,27.9816904 C98.9014998,27.9937889 98.8014027,28 98.7,28 C97.2088312,28 96,26.6568542 96,25 C96,23.3431458 97.2088312,22 98.7,22 C98.8014027,22 98.9014998,22.0062111 99,22.0183096 Z" id="Combined-Shape" fill="#535054" transform="translate(97.500000, 25.000000) scale(-1, -1) translate(-97.500000, -25.000000) "></path>
                <path d="M5,28 C6.31815053,24.5495456 10.9671528,22 16.5,22 C22.0328472,22 26.6818495,24.5495456 28,28 L5,28 Z" id="Combined-Shape" fill="#FFFFFF"></path>
                <path d="M22,22.0183096 L22,27.9816904 C21.9014998,27.9937889 21.8014027,28 21.7,28 C20.2088312,28 19,26.6568542 19,25 C19,23.3431458 20.2088312,22 21.7,22 C21.8014027,22 21.9014998,22.0062111 22,22.0183096 Z" id="Combined-Shape" fill="#535054" transform="translate(20.500000, 25.000000) scale(-1, -1) translate(-20.500000, -25.000000) "></path>
                <polygon id="Path-14" fill="#535054" points="51 32 62 32 56.5 39"></polygon>
            </g>
        </g>
    </g>
</svg>