<?xml version="1.0" encoding="UTF-8"?>
<svg width="170px" height="134px" viewBox="0 0 170 134" version="1.1" xmlns="http://www.w3.org/2000/svg" xmlns:xlink="http://www.w3.org/1999/xlink">
    <!-- Generator: Sketch 54 (76480) - https://sketchapp.com -->
    <title>Group 4</title>
    <desc>Created with Sketch.</desc>
    <g id="Page-1" stroke="none" stroke-width="1" fill="none" fill-rule="evenodd">
        <g id="Home-Copy" transform="translate(-129.000000, -2655.000000)">
            <g id="Group-4" transform="translate(131.000000, 2655.000000)">
                <g id="Group-3">
                    <g id="Cafe" transform="translate(85.000000, 48.000000)">
                        <polygon id="Rectangle" fill="#FFFFFF" points="4 19.7647059 56 19.7647059 47.3333333 84 12.6666667 84"></polygon>
                        <rect id="Rectangle" fill="#ADD1CA" x="0" y="10.8705882" width="59" height="8.89411765"></rect>
                        <rect id="Rectangle" fill="#ADD1CA" x="8" y="0" width="46" height="13.8352941" rx="3"></rect>
                        <path d="M29.5,57.3176471 C34.1944204,57.3176471 38,53.556839 38,48.9176471 C38,44.2784552 34.1944204,40.5176471 29.5,40.5176471 C24.8055796,40.5176471 21,44.2784552 21,48.9176471 C21,53.556839 24.8055796,57.3176471 29.5,57.3176471 Z" id="Oval" stroke="#535054" stroke-width="3" fill="#535054" stroke-linecap="round" stroke-linejoin="round" stroke-dasharray="0,6"></path>
                    </g>
                    <path d="M130.263708,29.3528361 C128.538866,27.0163259 127.703428,24.066779 128.151106,21.006196 C129.062188,14.777519 134.949809,10.3983438 141.410058,11.0572239 C141.410385,11.0549839 141.410712,11.0527439 141.411039,11.0505038 C142.437828,4.03079232 149.192871,-0.860046475 156.49885,0.126509642 C163.80483,1.11306576 168.89512,7.60342806 167.868331,14.6231396 C166.841543,21.6428511 160.0865,26.5336899 152.78052,25.5471338 C152.482385,25.5068753 152.187939,25.4574519 151.897448,25.3992014 C150.602916,30.4907792 145.905144,34.0972166 140.518615,34.2531534 C140.509589,34.4410017 140.49136,34.6301256 140.463575,34.8200763 C139.982268,38.1105661 136.815842,40.4031468 133.391164,39.9406986 C129.966486,39.4782504 127.580413,36.4358931 128.06172,33.1454033 C128.287666,31.6007034 129.105353,30.2759202 130.263708,29.3528361 Z" id="Humo-cafe" fill="#8C7239" opacity="0.601934524"></path>
                    <path d="M54.0548087,68.5675676 C53.7990348,56.3153153 54.4384695,56.3153153 55.9731127,68.5675676 C57.5077559,80.8198198 59.42606,96.7477477 61.7280248,116.351351 C62.2395726,118.801802 63.0068942,120.027027 64.0299897,120.027027 C65.0530851,120.027027 65.8204068,118.801802 66.3319545,116.351351 C66.9060281,72.2432432 67.6733497,50.1891892 68.6339193,50.1891892 C69.594489,50.1891892 70.7454714,72.2432432 72.0868666,116.351351 C72.5984143,118.801802 73.365736,120.027027 74.3888314,120.027027 C75.4119269,120.027027 76.3071355,118.801802 77.0744571,116.351351 C77.2004364,66.1171171 77.7119841,41 78.6091003,41 C79.5062165,41 80.7850858,66.1171171 82.4457084,116.351351 C82.5735953,118.801802 83.4688039,120.027027 85.131334,120.027027 C86.7938642,120.027027 87.6251293,118.801802 87.6251293,116.351351 C85.9625991,67.6486486 85.9625991,42.8378378 87.6251293,41.9189189 C89.0101398,41.1533915 89.449247,56.9080525 92.1655839,92.9189189 C92.5284388,97.7293378 93.1980105,105.540149 94.1742989,116.351351 C95.0582068,118.801802 96.0117085,120.027027 97.034804,120.027027 C97.7858864,120.027027 98.9085146,120.673996 100.11,117.537445 C100.400088,116.780153 101.034224,114.700104 102.01241,111.297297 C103.512385,100.460807 104.644915,91.8815319 105.41,85.5594714 C106.146775,79.4713433 107,87.7974477 107,90.0875 C107,93.1786303 107,108.012882 107,134.590254 C107,139.608797 107,148.078712 107,160 L54.0548087,160 L54.0548087,68.5675676 Z" id="Mano" stroke="#DBC3BB" stroke-width="3" fill="#DBC3BB" transform="translate(80.500000, 100.500000) scale(1, -1) rotate(90.000000) translate(-80.500000, -100.500000) "></path>
                    <g id="Nudillos" transform="translate(70.500000, 100.000000) scale(1, -1) translate(-70.500000, -100.000000) translate(57.000000, 75.000000)" stroke="#FFFFFF" stroke-linecap="round" stroke-width="2">
                        <path d="M20.7,0.980392157 L18.3,4.70588235" id="Line-7"></path>
                        <path d="M18,0 L15.375,3.7037037" id="Line-9"></path>
                        <path d="M25.7,11.7647059 L23.3,15.4901961" id="Line-7"></path>
                        <path d="M23,10.7843137 L20.375,14.4880174" id="Line-9"></path>
                        <path d="M26.7,21.5686275 L24.3,25.2941176" id="Line-7"></path>
                        <path d="M23,21.5686275 L20.375,25.2723312" id="Line-9"></path>
                        <path d="M22.7,32.3529412 L20.3,36.0784314" id="Line-7"></path>
                        <path d="M20,31.372549 L17.375,35.0762527" id="Line-9"></path>
                        <path d="M24.7,46.0784314 L22.3,49.8039216" id="Line-7"></path>
                        <path d="M22,46.0784314 L19.375,48.8562092" id="Line-9"></path>
                        <path d="M3.7,35.2941176 L1.3,38.0882353" id="Line-7"></path>
                        <path d="M1,35.2941176 L0.125,37.1459695" id="Line-9"></path>
                        <path d="M3.7,46.0784314 L1.3,48.872549" id="Line-7"></path>
                        <path d="M1,46.0784314 L0.125,47.9302832" id="Line-9"></path>
                        <path d="M3.7,23.5294118 L1.3,26.3235294" id="Line-7"></path>
                        <path d="M1,24.5098039 L0.125,26.3616558" id="Line-9"></path>
                        <path d="M3.7,15.6862745 L1.3,18.4803922" id="Line-7"></path>
                        <path d="M1,15.6862745 L0.125,17.5381264" id="Line-9"></path>
                        <path d="M3.7,5.88235294 L1.3,7.74509804" id="Line-7"></path>
                        <path d="M1,5.88235294 L0.125,7.73420479" id="Line-9"></path>
                    </g>
                    <rect id="Manga" stroke="#8C7239" stroke-width="3" fill="#8C7239" stroke-linecap="round" stroke-linejoin="round" transform="translate(10.000000, 100.500000) scale(1, -1) translate(-10.000000, -100.500000) " x="0" y="69" width="20" height="63"></rect>
                </g>
            </g>
        </g>
    </g>
</svg>