<?xml version="1.0" encoding="UTF-8"?>
<svg width="1440px" height="408px" viewBox="0 0 1440 408" version="1.1" xmlns="http://www.w3.org/2000/svg" xmlns:xlink="http://www.w3.org/1999/xlink">
    <!-- Generator: Sketch 54 (76480) - https://sketchapp.com -->
    <title>Group 6</title>
    <desc>Created with Sketch.</desc>
    <g id="Page-1" stroke="none" stroke-width="1" fill="none" fill-rule="evenodd">
        <g id="Relart" transform="translate(0.000000, -108.000000)">
            <g id="Group-6" transform="translate(-113.000000, 108.000000)">
                <rect id="Rectangle" fill="#54656F" x="112" y="0" width="1442" height="408"></rect>
                <g id="Group-5" transform="translate(0.000000, 2.000000)">
                    <text id="R!art" font-family="KirangHaerang-Regular, Kirang Haerang" font-size="110" font-weight="normal" line-spacing="106" fill="#FDFCFA">
                        <tspan x="743" y="181">R</tspan>
                        <tspan x="775.93" y="181" font-family="AmericanTypewriter, American Typewriter" font-size="70">!art</tspan>
                    </text>
                    <g id="frida" transform="translate(1405.000000, 0.000000)">
                        <g id="FRIDA">
                            <path d="M139.57812,56.1317184 C145.794524,55.2639916 155.988289,55.7032887 170.159417,57.4496097 C178.750907,58.5083467 187.46638,61.4268267 203.442037,69.2617787 C261.113647,97.5457036 260.394155,318.919619 250.037705,329.129497 C240.718571,338.316739 208.767256,348.037992 168.828112,359.316151 C160.368893,361.704896 150.6318,363.016814 139.616834,363.251906 C139.603928,363.253271 139.591023,363.253 139.57812,363.252728 C139.565218,363.253 139.552313,363.253271 139.539407,363.25354 C128.524441,363.016814 118.787348,361.704896 110.328128,359.316151 C70.3889845,348.037992 38.4376693,338.316739 29.1185357,329.129497 C18.7620859,318.919619 18.0425933,97.5457036 75.7142037,69.2617787 C91.6898612,61.4268267 100.405334,58.5083467 108.996824,57.4496097 C123.167951,55.7032887 133.361717,55.2639916 139.57812,56.1317184 Z" id="Combined-Shape" stroke-opacity="0.5" stroke="#DBD0BD" stroke-width="3" fill="#FCF2E7" fill-rule="nonzero"></path>
                            <path d="M138.22322,362.815241 L138.22322,56.1311038 C144.508164,55.2646113 154.814323,55.7032835 169.141698,57.4471204 C177.827914,58.5043515 186.639481,61.4186799 202.791282,69.2424869 C261.098763,97.4861787 260.371337,318.545195 249.9007,328.74055 C240.478816,337.914723 208.175215,347.622148 167.795714,358.884264 C159.243226,361.269611 149.398774,362.579663 138.262361,362.814421 C138.249312,362.815784 138.236265,362.815513 138.22322,362.815241 Z" id="Combined-Shape" fill-opacity="0.2" fill="#DBD0BD" fill-rule="nonzero"></path>
                            <g id="rasgos" transform="translate(52.671102, 147.572084)" fill-rule="nonzero">
                                <ellipse id="Ojo" fill="#4A4A4A" cx="15.1361441" cy="24.2805696" rx="1.97427966" ry="1.96869483"></ellipse>
                                <ellipse id="Ojo" fill="#4A4A4A" cx="159.916653" cy="24.2805696" rx="1.97427966" ry="1.96869483"></ellipse>
                                <path d="M80.2952106,90.5599623 L89.4928403,90.5599623 C89.3525764,96.415766 87.3472429,101.059668 84.8940254,101.059668 C82.4408079,101.059668 80.4354744,96.415766 80.2952106,90.5599623 Z" id="Boca" stroke="#E16353" stroke-width="2" fill="#FFFFFF"></path>
                                <ellipse id="Colorete-2" fill-opacity="0.9" fill="#E16353" cx="167.813771" cy="78.0915617" rx="3.2904661" ry="3.28115806"></ellipse>
                                <ellipse id="Colorete-2" fill-opacity="0.9" fill="#E16353" cx="158.600466" cy="78.0915617" rx="3.2904661" ry="3.28115806"></ellipse>
                                <ellipse id="Colorete" fill-opacity="0.9" fill="#E16353" cx="3.2904661" cy="78.0915617" rx="3.2904661" ry="3.28115806"></ellipse>
                                <ellipse id="Colorete" fill-opacity="0.9" fill="#E16353" cx="12.5037712" cy="78.0915617" rx="3.2904661" ry="3.28115806"></ellipse>
                                <path d="M157.942373,6.56231611 C147.412881,0.102536189 43.4341525,-2.62492644 21.0589831,6.56231611" id="cejas" stroke="#979797"></path>
                            </g>
                            <g id="Pelo" transform="translate(0.000000, 20.887372)" fill="#4A4A4A" fill-rule="nonzero" stroke="#4A4A4A" stroke-dasharray="0,5" stroke-linecap="round" stroke-linejoin="round" stroke-width="5">
                                <path d="M142.29,1.39249147 C156.676998,2.59209393 165.296868,3.04414228 168.149608,2.74863652 C221.341595,-2.7613416 250.465755,8.51884157 255.522089,36.589186 C263.716735,82.0819456 294.153995,119.546571 267.228727,202.503956 C263.303186,214.59864 260.009335,220.970193 257.863416,221.891525 C256.945791,222.285499 256.692752,219.053861 256.692752,217.319723 C256.692752,197.560292 252.909315,154.157687 243.81545,118.046317 C238.7415,97.8978642 233.544991,79.3925283 222.743502,70.0397446 C206.15601,55.6769832 190.761469,50.9683208 177.087613,48.8161792 C172.049688,48.0232553 160.450484,46.6044379 142.29,44.559727 L142.29,1.39249147 Z" id="Path-15"></path>
                                <path d="M135.315,1.39249147 L135.315,44.559727 C124.970586,44.7820127 112.07722,46.8745005 106.754258,47.6674243 C92.3067573,49.819566 76.041218,54.5282284 58.5152335,68.8909897 C47.102613,78.2437735 41.6120946,96.7491093 36.2510682,116.897563 C26.6426877,153.008932 22.6451894,196.411537 22.6451894,216.170969 C22.6451894,217.905107 22.3778341,221.136744 21.4082913,220.74277 C19.1409594,219.821438 15.6607481,213.449885 11.5131067,201.355201 C-16.935549,118.397816 15.2238009,80.9331908 23.8820874,35.4404312 C29.2244999,7.37008671 59.9964576,-3.91009647 116.197961,1.59988166 C119.212105,1.89538742 128.95757,0.584160025 135.315,1.39249147 Z" id="Path-15"></path>
                            </g>
                            <g id="Diadema" transform="translate(39.060000, 0.000000)" fill-rule="nonzero" stroke="#FDFCFA" stroke-width="2">
                                <path d="M74.7098127,48.0256673 C74.5087747,46.795464 74.3993354,45.4708848 74.3993354,44.0907239 C74.3993354,37.6018494 76.8184292,32.3415772 79.8025326,32.3415772 C82.786636,32.3415772 85.2057297,37.6018494 85.2057297,44.0907239 C85.2057297,45.5621873 85.0813319,46.9704718 84.8541569,48.2685637 C86.4073516,47.7347027 88.2232446,47.410743 90.1671841,47.3736087 C95.9637694,47.2628788 100.703841,49.7444115 100.754431,52.916267 C100.805021,56.0881225 96.1469716,58.7491837 90.3503863,58.8599136 C88.3354381,58.8984044 86.4481509,58.6236659 84.8411185,58.1155844 C85.0765678,59.4340226 85.2057297,60.8677993 85.2057297,62.3671745 C85.2057297,68.856049 82.786636,74.1163212 79.8025326,74.1163212 C76.8184292,74.1163212 74.3993354,68.856049 74.3993354,62.3671745 C74.3993354,60.7897209 74.5422995,59.2848756 74.8015905,57.9105609 C73.1982483,58.4152181 71.3171528,58.6878921 69.3092929,58.6495367 C63.5127076,58.5388068 58.8546579,55.8777456 58.9052478,52.7058901 C58.9558377,49.5340345 63.6959098,47.0525019 69.4924951,47.1632318 C71.3966426,47.199606 73.1779322,47.5111833 74.7098127,48.0256673 Z" id="Combined-Shape" fill="#54656F" transform="translate(79.829840, 53.228949) rotate(20.000000) translate(-79.829840, -53.228949) "></path>
                                <path d="M32.824365,24.3179284 C32.623327,23.0877251 32.5138877,21.7631459 32.5138877,20.382985 C32.5138877,13.8941105 34.9329815,8.63383828 37.9170849,8.63383828 C40.9011883,8.63383828 43.3202821,13.8941105 43.3202821,20.382985 C43.3202821,21.8544484 43.1958842,23.2627329 42.9687092,24.5608248 C44.5219039,24.0269638 46.3377969,23.7030041 48.2817364,23.6658698 C54.0783217,23.5551399 58.8183938,26.0366725 58.8689837,29.2085281 C58.9195736,32.3803836 54.2615239,35.0414448 48.4649386,35.1521747 C46.4499904,35.1906655 44.5627032,34.915927 42.9556708,34.4078455 C43.1911201,35.7262837 43.3202821,37.1600604 43.3202821,38.6594356 C43.3202821,45.1483101 40.9011883,50.4085823 37.9170849,50.4085823 C34.9329815,50.4085823 32.5138877,45.1483101 32.5138877,38.6594356 C32.5138877,37.081982 32.6568518,35.5771367 32.9161428,34.202822 C31.3128006,34.7074792 29.4317051,34.9801532 27.4238452,34.9417978 C21.6272599,34.8310679 16.9692102,32.1700067 17.0198001,28.9981512 C17.07039,25.8262956 21.8104621,23.344763 27.6070474,23.4554929 C29.5111949,23.4918671 31.2924845,23.8034444 32.824365,24.3179284 Z" id="Combined-Shape" fill="#ADD1CA" transform="translate(37.944392, 29.521210) scale(-1, -1) rotate(43.000000) translate(-37.944392, -29.521210) "></path>
                                <path d="M124.249638,46.7368337 C124.0486,45.5066304 123.939161,44.1820513 123.939161,42.8018904 C123.939161,36.3130158 126.358255,31.0527437 129.342358,31.0527437 C132.326462,31.0527437 134.745555,36.3130158 134.745555,42.8018904 C134.745555,44.2733537 134.621158,45.6816382 134.393983,46.9797301 C135.947177,46.4458692 137.76307,46.1219095 139.70701,46.0847752 C145.503595,45.9740453 150.243667,48.4555779 150.294257,51.6274334 C150.344847,54.799289 145.686797,57.4603502 139.890212,57.5710801 C137.875264,57.6095709 135.987977,57.3348324 134.380944,56.8267509 C134.616393,58.145189 134.745555,59.5789658 134.745555,61.0783409 C134.745555,67.5672155 132.326462,72.8274877 129.342358,72.8274877 C126.358255,72.8274877 123.939161,67.5672155 123.939161,61.0783409 C123.939161,59.5008874 124.082125,57.9960421 124.341416,56.6217274 C122.738074,57.1263846 120.856978,57.3990585 118.849119,57.3607032 C113.052533,57.2499733 108.394484,54.588912 108.445073,51.4170565 C108.495663,48.245201 113.235735,45.7636684 119.032321,45.8743983 C120.936468,45.9107724 122.717758,46.2223497 124.249638,46.7368337 Z" id="Combined-Shape" fill="#E7A75F" transform="translate(129.369665, 51.940116) scale(-1, -1) rotate(62.000000) translate(-129.369665, -51.940116) "></path>
                                <path d="M21.6998127,66.1280564 C21.4987747,64.8978531 21.3893354,63.5732739 21.3893354,62.193113 C21.3893354,55.7042384 23.8084292,50.4439663 26.7925326,50.4439663 C29.776636,50.4439663 32.1957297,55.7042384 32.1957297,62.193113 C32.1957297,63.6645763 32.0713319,65.0728608 31.8441569,66.3709527 C33.3973516,65.8370918 35.2132446,65.5131321 37.1571841,65.4759978 C42.9537694,65.3652679 47.6938415,67.8468005 47.7444314,71.018656 C47.7950213,74.1905116 43.1369716,76.8515728 37.3403863,76.9623027 C35.3254381,77.0007935 33.4381509,76.726055 31.8311185,76.2179735 C32.0665678,77.5364116 32.1957297,78.9701884 32.1957297,80.4695635 C32.1957297,86.9584381 29.776636,92.2187103 26.7925326,92.2187103 C23.8084292,92.2187103 21.3893354,86.9584381 21.3893354,80.4695635 C21.3893354,78.89211 21.5322995,77.3872647 21.7915905,76.01295 C20.1882483,76.5176072 18.3071528,76.7902812 16.2992929,76.7519258 C10.5027076,76.6411959 5.84465791,73.9801347 5.8952478,70.8082791 C5.94583769,67.6364236 10.6859098,65.154891 16.4824951,65.2656209 C18.3866426,65.3019951 20.1679322,65.6135724 21.6998127,66.1280564 Z" id="Combined-Shape" fill="#E16353" transform="translate(26.819840, 71.331338) rotate(20.000000) translate(-26.819840, -71.331338) "></path>
                            </g>
                            <g id="Camiseta" transform="translate(138.105000, 375.972696) rotate(-180.000000) translate(-138.105000, -375.972696) translate(51.615000, 343.945392)" fill-rule="nonzero" stroke="#FDFCFA" stroke-width="2">
                                <path d="M62.278896,20.9550935 C62.1113086,20.0319524 62.0200788,19.0379919 62.0200788,18.0023231 C62.0200788,13.1330899 64.0366611,9.18579643 66.5242415,9.18579643 C69.0118219,9.18579643 71.0284042,13.1330899 71.0284042,18.0023231 C71.0284042,19.106505 70.9247049,20.1632777 70.7353294,21.1373622 C72.030089,20.7367545 73.5438368,20.493656 75.1643255,20.4657906 C79.9964208,20.3826992 83.9477953,22.2448343 83.9899676,24.6249857 C84.0321399,27.0051372 80.1491401,29.00199 75.3170448,29.0850814 C73.6373625,29.1139648 72.0640998,28.9078018 70.7244604,28.5265389 C70.9207335,29.5158911 71.0284042,30.5917932 71.0284042,31.7169201 C71.0284042,36.5861533 69.0118219,40.5334467 66.5242415,40.5334467 C64.0366611,40.5334467 62.0200788,36.5861533 62.0200788,31.7169201 C62.0200788,30.5332034 62.1392552,29.4039717 62.3554029,28.3726898 C61.0188398,28.7513832 59.4507385,28.9559969 57.7769651,28.9272152 C52.9448698,28.8441238 49.06187,26.8472709 49.1040422,24.4671195 C49.1462145,22.086968 53.0975891,20.2248329 57.9296844,20.3079243 C59.5170021,20.3352194 61.0019041,20.5690261 62.278896,20.9550935 Z" id="Combined-Shape" fill="#E16353" transform="translate(66.547005, 24.859622) rotate(20.000000) translate(-66.547005, -24.859622) "></path>
                                <path d="M146.530772,36.4622755 C146.363184,35.5391344 146.271954,34.5451739 146.271954,33.5095051 C146.271954,28.6402719 148.288537,24.6929784 150.776117,24.6929784 C153.263697,24.6929784 155.28028,28.6402719 155.28028,33.5095051 C155.28028,34.613687 155.17658,35.6704597 154.987205,36.6445442 C156.281965,36.2439365 157.795712,36.000838 159.416201,35.9729726 C164.248296,35.8898812 168.199671,37.7520163 168.241843,40.1321677 C168.284015,42.5123192 164.401016,44.509172 159.56892,44.5922634 C157.889238,44.6211468 156.315975,44.4149838 154.976336,44.0337209 C155.172609,45.0230731 155.28028,46.0989752 155.28028,47.2241021 C155.28028,52.0933353 153.263697,56.0406287 150.776117,56.0406287 C148.288537,56.0406287 146.271954,52.0933353 146.271954,47.2241021 C146.271954,46.0403854 146.391131,44.9111537 146.607278,43.8798718 C145.270715,44.2585652 143.702614,44.4631789 142.028841,44.4343972 C137.196745,44.3513058 133.313746,42.3544529 133.355918,39.9743015 C133.39809,37.59415 137.349465,35.7320149 142.18156,35.8151063 C143.768878,35.8424014 145.25378,36.0762081 146.530772,36.4622755 Z" id="Combined-Shape" fill="#54656F" transform="translate(150.798881, 40.366804) scale(-1, -1) rotate(62.000000) translate(-150.798881, -40.366804) "></path>
                                <path d="M103.575823,19.9879564 C103.408235,19.0648153 103.317005,18.0708549 103.317005,17.035186 C103.317005,12.1659528 105.333588,8.21865938 107.821168,8.21865938 C110.308748,8.21865938 112.325331,12.1659528 112.325331,17.035186 C112.325331,18.1393679 112.221631,19.1961407 112.032256,20.1702252 C113.327016,19.7696174 114.840763,19.526519 116.461252,19.4986535 C121.293347,19.4155621 125.244722,21.2776972 125.286894,23.6578486 C125.329066,26.0380001 121.446067,28.034853 116.613971,28.1179444 C114.934289,28.1468277 113.361026,27.9406648 112.021387,27.5594018 C112.21766,28.5487541 112.325331,29.6246561 112.325331,30.749783 C112.325331,35.6190162 110.308748,39.5663097 107.821168,39.5663097 C105.333588,39.5663097 103.317005,35.6190162 103.317005,30.749783 C103.317005,29.5660663 103.436182,28.4368346 103.652329,27.4055527 C102.315766,27.7842461 100.747665,27.9888599 99.0738917,27.9600781 C94.2417964,27.8769867 90.3587965,25.8801339 90.4009688,23.4999824 C90.4431411,21.119831 94.3945156,19.2576959 99.2266109,19.3407873 C100.813929,19.3680823 102.298831,19.6018891 103.575823,19.9879564 Z" id="Combined-Shape" fill="#E7A75F" transform="translate(107.843931, 23.892485) scale(-1, -1) rotate(62.000000) translate(-107.843931, -23.892485) "></path>
                                <path d="M18.0891951,34.5390753 C17.9216077,33.6159342 17.8303779,32.6219737 17.8303779,31.5863049 C17.8303779,26.7170717 19.8469603,22.7697782 22.3345407,22.7697782 C24.822121,22.7697782 26.8387034,26.7170717 26.8387034,31.5863049 C26.8387034,32.6904868 26.735004,33.7472595 26.5456285,34.721344 C27.8403882,34.3207363 29.3541359,34.0776378 30.9746246,34.0497723 C35.8067199,33.9666809 39.7580945,35.828816 39.8002667,38.2089675 C39.842439,40.5891189 35.9594392,42.5859718 31.1273439,42.6690632 C29.4476616,42.6979466 27.8743989,42.4917836 26.5347595,42.1105207 C26.7310326,43.0998729 26.8387034,44.175775 26.8387034,45.3009019 C26.8387034,50.1701351 24.822121,54.1174285 22.3345407,54.1174285 C19.8469603,54.1174285 17.8303779,50.1701351 17.8303779,45.3009019 C17.8303779,44.1171852 17.9495543,42.9879535 18.165702,41.9566716 C16.8291389,42.3353649 15.2610377,42.5399787 13.5872642,42.511197 C8.75516894,42.4281056 4.87216912,40.4312527 4.91434138,38.0511013 C4.95651365,35.6709498 8.90788824,33.8088147 13.7399835,33.8919061 C15.3273012,33.9192012 16.8122032,34.1530079 18.0891951,34.5390753 Z" id="Combined-Shape" fill="#ADD1CA" transform="translate(22.357304, 38.443603) rotate(20.000000) translate(-22.357304, -38.443603) "></path>
                            </g>
                        </g>
                    </g>
                    <g id="pablo-picasso" transform="translate(0.000000, 10.000000)">
                        <g>
                            <path d="M124.832671,0.466664687 C131.530318,-0.470561011 142.513234,0.00392072315 157.781421,1.89010989 C167.038021,3.03364446 176.428203,6.18587435 193.640617,14.6483516 C255.776879,45.1976227 255.001686,284.302052 243.843491,295.32967 C233.802916,305.252747 199.378088,315.752604 156.347053,327.934066 C147.232962,330.514133 136.742072,331.931127 124.874382,332.185048 C124.860476,332.186522 124.846573,332.18623 124.832671,332.185935 C124.818769,332.18623 124.804866,332.186522 124.79096,332.186813 C112.92327,331.931127 102.43238,330.514133 93.3182891,327.934066 C50.2872539,315.752604 15.8624257,305.252747 5.82185079,295.32967 C-5.33634422,284.302052 -6.11153644,45.1976227 56.0247252,14.6483516 C73.2371393,6.18587435 82.6273211,3.03364446 91.8839213,1.89010989 C107.152108,0.00392072315 118.135024,-0.470561011 124.832671,0.466664687 Z" id="Combined-Shape" stroke-opacity="0.5" stroke="#DBD0BD" stroke-width="3" fill="#FCF2E7" fill-rule="nonzero"></path>
                            <path d="M123.372881,331.713409 L123.372881,0.466000867 C130.144374,-0.46989165 141.248385,0.00391514602 156.684914,1.88742126 C166.043575,3.02932918 175.53729,6.1770751 192.939483,14.6275147 C255.760841,45.1333302 254.977102,283.897639 243.69588,294.909571 C233.544601,304.818533 198.740214,315.303454 155.234732,327.467588 C146.020152,330.043985 135.413592,331.458963 123.415052,331.712523 C123.400993,331.713995 123.386936,331.713703 123.372881,331.713409 Z" id="Combined-Shape" fill-opacity="0.1" fill="#DBD0BD" fill-rule="nonzero"></path>
                            <g id="rasgos" transform="translate(31.197740, 94.978022)" fill-rule="nonzero">
                                <ellipse id="Oval" fill="#4A4A4A" cx="16.3079096" cy="2.12637363" rx="2.12711864" ry="2.12637363"></ellipse>
                                <ellipse id="Oval" fill="#4A4A4A" cx="172.29661" cy="2.12637363" rx="2.12711864" ry="2.12637363"></ellipse>
                                <path d="M86.5112693,89.3076923 L96.4209341,89.3076923 C96.2698117,95.6325052 94.1092352,100.648352 91.4661017,100.648352 C88.8229682,100.648352 86.6623917,95.6325052 86.5112693,89.3076923 Z" id="Combined-Shape" stroke="#DBD0BD" fill="#FFFFFF"></path>
                                <ellipse id="Oval" fill-opacity="0.5" fill="#E16353" cx="3.54519774" cy="68.7527473" rx="3.54519774" ry="3.54395604"></ellipse>
                                <ellipse id="Oval" fill-opacity="0.5" fill="#E16353" cx="170.878531" cy="68.7527473" rx="3.54519774" ry="3.54395604"></ellipse>
                                <ellipse id="Oval" fill-opacity="0.5" fill="#E16353" cx="180.805085" cy="68.7527473" rx="3.54519774" ry="3.54395604"></ellipse>
                                <ellipse id="Oval" fill-opacity="0.5" fill="#E16353" cx="13.4717514" cy="68.7527473" rx="3.54519774" ry="3.54395604"></ellipse>
                            </g>
                            <g id="Pelo" transform="translate(14.180791, 68.043956)" fill="#F5A623" fill-opacity="0.04951" fill-rule="nonzero" stroke="#979797" stroke-dasharray="0,5" stroke-linecap="round" stroke-linejoin="round" stroke-width="3">
                                <path d="M215.548023,-5.32907052e-15 L217.572152,41.1098901 C220.463766,28.8241758 221.524024,18.9010989 220.752927,11.3406593 C219.98183,3.78021978 218.246862,-5.32907052e-15 215.548023,-5.32907052e-15 Z" id="Path-13"></path>
                                <path d="M2.37587727e-14,-5.32907052e-15 L2.02412966,41.1098901 C4.91574346,28.8241758 5.97600185,18.9010989 5.20490484,11.3406593 C4.43380783,3.78021978 2.69883955,-5.32907052e-15 2.37587727e-14,-5.32907052e-15 Z" id="Path-13" transform="translate(2.724205, 20.554945) scale(-1, 1) translate(-2.724205, -20.554945) "></path>
                            </g>
                            <g id="camiseta" transform="translate(62.395480, 343.054945)">
                                <rect id="Rectangle" fill="#FDFCFA" x="0" y="0" width="127.627119" height="34.021978" rx="4"></rect>
                                <path d="M125.124626,3.14586783 L2.53929599,3.14586783" id="Line-3" stroke="#54656F" stroke-width="4" stroke-linecap="round" fill-rule="nonzero"></path>
                                <path d="M125.124626,17.321692 L2.53929599,17.321692" id="Line-3" stroke="#54656F" stroke-width="4" stroke-linecap="round" fill-rule="nonzero"></path>
                                <path d="M125.124626,31.4975162 L2.53929599,31.4975162" id="Line-3" stroke="#54656F" stroke-width="4" stroke-linecap="round" fill-rule="nonzero"></path>
                            </g>
                        </g>
                    </g>
                </g>
            </g>
        </g>
    </g>
</svg>